<svg width="24" height="24" viewBox="0 0 24 24" fill="none" xmlns="http://www.w3.org/2000/svg">
<path fill-rule="evenodd" clip-rule="evenodd" d="M2.2 4.5002C2.2 3.50608 3.00589 2.7002 4 2.7002H20C20.9941 2.7002 21.8 3.50608 21.8 4.5002V6.5002C21.8 7.39209 21.1513 8.13248 20.3 8.27531V19.0002C20.3 19.9943 19.4941 20.8002 18.5 20.8002H5.5C4.50589 20.8002 3.7 19.9943 3.7 19.0002V8.27531C2.84869 8.13248 2.2 7.39209 2.2 6.5002V4.5002ZM5.3 8.3002H18.7V19.0002C18.7 19.1107 18.6105 19.2002 18.5 19.2002H5.5C5.38954 19.2002 5.3 19.1107 5.3 19.0002V8.3002ZM4 4.3002C3.88954 4.3002 3.8 4.38974 3.8 4.5002V6.5002C3.8 6.61065 3.88954 6.7002 4 6.7002H20C20.1105 6.7002 20.2 6.61065 20.2 6.5002V4.5002C20.2 4.38974 20.1105 4.3002 20 4.3002H4ZM8.9 10.5002C8.40294 10.5002 8 10.9031 8 11.4002C8 11.8973 8.40294 12.3002 8.9 12.3002H15.1C15.5971 12.3002 16 11.8973 16 11.4002C16 10.9031 15.5971 10.5002 15.1 10.5002H8.9Z" fill="#767779"/>
</svg>
