<svg width="24" height="25" viewBox="0 0 24 25" fill="none" xmlns="http://www.w3.org/2000/svg">
<path fill-rule="evenodd" clip-rule="evenodd" d="M1.50502 10.0048L6.00453 5.50532L6.00502 5.50483C6.27839 5.23146 6.72161 5.23146 6.99497 5.50483L6.99546 5.50532L11.495 10.0048C11.7683 10.2782 11.7683 10.7214 11.495 10.9948C11.2216 11.2681 10.7784 11.2681 10.505 10.9948L7.2 7.68975V21.4998C7.2 21.8864 6.8866 22.1998 6.5 22.1998C6.1134 22.1998 5.8 21.8864 5.8 21.4998V7.68975L2.49497 10.9948C2.22161 11.2681 1.77839 11.2681 1.50502 10.9948C1.23166 10.7214 1.23166 10.2782 1.50502 10.0048ZM22.4949 17.4952L17.9954 21.9947L17.9949 21.9952C17.7215 22.2685 17.2783 22.2685 17.0049 21.9952L17.0044 21.9947L12.5049 17.4952C12.2316 17.2218 12.2316 16.7786 12.5049 16.5052C12.7783 16.2319 13.2215 16.2319 13.4949 16.5052L16.7999 19.8102L16.7999 6.00019C16.7999 5.6136 17.1133 5.3002 17.4999 5.3002C17.8865 5.3002 18.1999 5.6136 18.1999 6.00019L18.1999 19.8102L21.5049 16.5052C21.7783 16.2319 22.2215 16.2319 22.4949 16.5052C22.7682 16.7786 22.7682 17.2218 22.4949 17.4952Z" fill="#0A0A0A"/>
</svg>
