<svg width="24" height="25" viewBox="0 0 24 25" fill="none" xmlns="http://www.w3.org/2000/svg">
<path fill-rule="evenodd" clip-rule="evenodd" d="M11.5 3.6998H4.68994L5.7977 4.80756C6.07106 5.08093 6.07106 5.52415 5.7977 5.79751C5.7719 5.82331 5.74459 5.84667 5.71606 5.8676C4.84558 6.62674 4.13293 7.54993 3.61892 8.5846C3.09786 9.63346 2.79141 10.7758 2.71752 11.9446C2.64363 13.1134 2.80379 14.2852 3.18862 15.3914C3.57344 16.4975 4.17519 17.5157 4.9586 18.3862C5.742 19.2568 6.69129 19.9622 7.75084 20.4612C8.81039 20.9602 9.95888 21.2426 11.129 21.292C12.2991 21.3414 13.4673 21.1567 14.5651 20.7487C15.6629 20.3408 16.6683 19.7179 17.5222 18.9164C17.8041 18.6518 18.2471 18.6658 18.5117 18.9477C18.6506 19.0957 18.7127 19.2881 18.6996 19.4757C18.6999 19.4837 18.7 19.4917 18.7 19.4998V21.2998H20.3V12.4998C20.3 11.3442 20.0724 10.1999 19.6301 9.13219C19.1879 8.06453 18.5397 7.09442 17.7225 6.27727C16.9054 5.46011 15.9353 4.81191 14.8676 4.36967C13.7999 3.92742 12.6556 3.6998 11.5 3.6998ZM15.0528 22.0611C15.8494 21.765 16.6041 21.3713 17.3 20.8903V21.9998C17.3 22.3864 17.6134 22.6998 18 22.6998H21C21.3866 22.6998 21.7 22.3864 21.7 21.9998V12.4998C21.7 11.1603 21.4362 9.83396 20.9236 8.59643C20.411 7.35891 19.6596 6.23447 18.7125 5.28732C17.7653 4.34016 16.6409 3.58883 15.4034 3.07623C14.1658 2.56364 12.8395 2.2998 11.5 2.2998H2.99999C2.71686 2.2998 2.46162 2.47035 2.35327 2.73193C2.24493 2.9935 2.30482 3.29458 2.50501 3.49478L4.29253 5.28229C3.51002 6.06371 2.85859 6.9684 2.36512 7.96173C1.76116 9.17745 1.40595 10.5015 1.32031 11.8563C1.23466 13.211 1.42031 14.5693 1.86636 15.8514C2.3124 17.1335 3.00988 18.3137 3.91792 19.3227C4.82595 20.3318 5.92627 21.1495 7.15439 21.7278C8.3825 22.3061 9.71371 22.6335 11.07 22.6907C12.4262 22.748 13.7803 22.5339 15.0528 22.0611ZM4.99999 12.5756C4.99999 12.5338 5.03394 12.4998 5.07582 12.4998H17.9242C17.966 12.4998 18 12.5338 18 12.5756C18 15.8475 15.3476 18.4998 12.0758 18.4998H10.9242C7.65233 18.4998 4.99999 15.8475 4.99999 12.5756ZM8.42284 15.3186L8.31046 15.3667C8.15346 15.434 8.1025 15.6316 8.20737 15.7664C9.87738 17.9136 13.1226 17.9136 14.7926 15.7664C14.8975 15.6316 14.8465 15.434 14.6895 15.3667L14.5771 15.3186C12.6121 14.4764 10.3878 14.4764 8.42284 15.3186Z" fill="#0A0A0A"/>
</svg>
