<svg width="16" height="16" viewBox="0 0 16 16" fill="none" xmlns="http://www.w3.org/2000/svg">
<path fill-rule="evenodd" clip-rule="evenodd" d="M5.16354 4.31492C5.94851 3.7098 6.93223 3.3499 8 3.3499C10.5681 3.3499 12.65 5.43178 12.65 7.9999C12.65 9.06768 12.2901 10.0514 11.685 10.8364L5.16354 4.31492ZM4.31501 5.16344C3.7099 5.94841 3.35 6.93213 3.35 7.9999C3.35 10.568 5.43188 12.6499 8 12.6499C9.06778 12.6499 10.0515 12.29 10.8365 11.6849L4.31501 5.16344ZM8 2.1499C4.76914 2.1499 2.15 4.76904 2.15 7.9999C2.15 11.2308 4.76914 13.8499 8 13.8499C11.2309 13.8499 13.85 11.2308 13.85 7.9999C13.85 4.76904 11.2309 2.1499 8 2.1499Z" fill="#767779"/>
</svg>
