<svg width="24" height="25" viewBox="0 0 24 25" fill="none" xmlns="http://www.w3.org/2000/svg">
<path fill-rule="evenodd" clip-rule="evenodd" d="M17.8001 6.37035C16.0724 7.43666 14.012 8.00509 12.3127 8.31406C11.2507 8.50715 10.3026 8.60352 9.61955 8.65174C9.46596 8.66258 9.32555 8.671 9.2 8.67755V14.823C9.32555 14.8296 9.46596 14.838 9.61955 14.8488C10.3026 14.8971 11.2507 14.9934 12.3127 15.1865C14.012 15.4955 16.0724 16.064 17.8001 17.1303V6.37035ZM8.49972 16.2001H8.49996L8.49995 16.2002L8.50212 16.2002L8.51354 16.2003L8.56322 16.2009C8.608 16.2016 8.67565 16.2029 8.76387 16.2057L8.78794 16.2065L9.56143 19.925C9.63884 20.2972 9.43806 20.6713 9.08511 20.8125C8.68997 20.9705 8.24091 20.7844 8.0734 20.3932L6.27796 16.2001H8.48495C8.48986 16.2002 8.49478 16.2002 8.49971 16.2002L8.49972 16.2001ZM7.79995 8.7002V14.8001H5C3.72974 14.8001 2.7 13.7703 2.7 12.5001V11.0002C2.7 9.72994 3.72974 8.7002 5 8.7002H7.79995ZM8.52073 7.3002L8.56322 7.2997C8.608 7.29902 8.67565 7.29765 8.76387 7.29484C8.94037 7.28924 9.19887 7.27795 9.52097 7.25521C10.166 7.20968 11.0617 7.11855 12.0622 6.93664C14.023 6.58013 16.2873 5.89192 17.8873 4.59945C18.1723 3.56201 19.1222 2.7998 20.2501 2.7998C21.6032 2.7998 22.7001 3.8967 22.7001 5.24979V18.2498C22.7001 19.6029 21.6032 20.6998 20.2501 20.6998C19.1227 20.6998 18.1731 19.9383 17.8877 18.9016C16.2877 17.6088 14.0232 16.9205 12.0622 16.564C11.393 16.4423 10.7707 16.3612 10.2389 16.3072L10.9321 19.6399C11.1478 20.6768 10.5884 21.719 9.60505 22.1123C8.50421 22.5527 7.25311 22.0342 6.78641 20.9443L4.7515 16.1919C2.82392 16.064 1.3 14.46 1.3 12.5001V11.0002C1.3 8.95674 2.95655 7.3002 5 7.3002H8.5H8.52073ZM19.2001 5.24979C19.2001 4.6699 19.6702 4.1998 20.2501 4.1998C20.83 4.1998 21.3001 4.6699 21.3001 5.24979V18.2498C21.3001 18.8297 20.83 19.2998 20.2501 19.2998C19.6702 19.2998 19.2001 18.8297 19.2001 18.2498V5.24979Z" fill="#0A0A0A"/>
</svg>
