<svg width="24" height="25" viewBox="0 0 24 25" fill="none" xmlns="http://www.w3.org/2000/svg">
<path fill-rule="evenodd" clip-rule="evenodd" d="M5.40324 6.63333C3.76179 7.82949 2.8001 9.47112 2.8001 11.3477C2.8001 13.4904 4.05714 15.4635 6.1417 16.7888C6.39309 16.9487 6.65605 17.0986 6.92961 17.2378C7.25944 17.4057 7.42408 17.6975 7.49464 17.9597C7.56134 18.2075 7.5571 18.4659 7.5327 18.6882C7.48349 19.1364 7.32708 19.6423 7.16275 20.0855C7.10087 20.2524 7.03548 20.4167 6.97005 20.5735C6.99591 20.5656 7.02209 20.5575 7.04857 20.5491C7.85403 20.2935 8.94054 19.7772 10.0208 18.7294C10.2862 18.472 10.6521 18.3362 11.0273 18.3658C11.3371 18.3902 11.6517 18.4028 11.9702 18.4028C17.2014 18.4028 21.1403 15.0962 21.1403 11.3477C21.1403 9.47112 20.1787 7.82949 18.5372 6.63333C16.8887 5.43205 14.5714 4.6998 11.9702 4.6998C9.36902 4.6998 7.05173 5.43205 5.40324 6.63333ZM5.147 21.1732L5.14755 21.1722L5.15046 21.1666L5.16297 21.1425C5.17417 21.1208 5.19087 21.0882 5.21206 21.0462C5.25447 20.962 5.31466 20.8403 5.38451 20.6926C5.52501 20.3955 5.70097 20.001 5.85006 19.5988C6.00298 19.1864 6.11095 18.8096 6.14106 18.5354C6.14651 18.4857 6.14883 18.4441 6.14902 18.4101C5.88813 18.2725 5.63507 18.1257 5.39058 17.9703C3.00264 16.4521 1.4001 14.0775 1.4001 11.3477C1.4001 8.94121 2.64791 6.90891 4.57873 5.50188C6.50253 4.09998 9.1203 3.2998 11.9702 3.2998C14.8201 3.2998 17.4379 4.09998 19.3617 5.50188C21.2925 6.90891 22.5403 8.94121 22.5403 11.3477C22.5403 16.1652 17.6413 19.8028 11.9702 19.8028C11.6309 19.8028 11.2952 19.79 10.9638 19.765C9.71598 20.9649 8.44481 21.5748 7.47208 21.8835C6.98249 22.0389 6.56903 22.1179 6.27213 22.158C6.1236 22.1781 6.0039 22.1886 5.91802 22.194C5.87507 22.1967 5.84053 22.1982 5.81502 22.1989L5.7836 22.1997L5.7731 22.1998L5.76917 22.1998L5.76755 22.1998H5.76682C5.76648 22.1998 5.76614 22.1998 5.76614 21.4998V22.1998C5.52083 22.1998 5.29341 22.0714 5.16672 21.8613C5.04005 21.6513 5.03255 21.3903 5.14694 21.1733L5.14698 21.1733L5.147 21.1732Z" fill="#0A0A0A"/>
</svg>
