<svg width="33" height="32" viewBox="0 0 33 32" fill="none" xmlns="http://www.w3.org/2000/svg">
<g clip-path="url(#clip0_2009_4742)">
<path fill-rule="evenodd" clip-rule="evenodd" d="M2.05001 15.1669C2.05001 10.7151 6.72471 6.8002 12.9167 6.8002C19.1086 6.8002 23.7833 10.7151 23.7833 15.1669C23.7833 19.6187 19.1086 23.5335 12.9167 23.5335C12.5395 23.5335 12.1669 23.5187 11.7999 23.4897C11.3645 23.4554 10.9397 23.613 10.6316 23.9119C9.35114 25.1538 8.06299 25.766 7.10748 26.0693C7.05694 26.0853 7.00733 26.1005 6.95868 26.1148C7.04334 25.9138 7.1284 25.7016 7.20845 25.4856C7.40247 24.9623 7.58641 24.3669 7.64419 23.8404C7.67286 23.5793 7.67758 23.2777 7.59999 22.9895C7.51799 22.6849 7.32725 22.3475 6.94615 22.1536C6.62203 21.9886 6.31045 21.8109 6.01256 21.6215C3.54263 20.0512 2.05001 17.7111 2.05001 15.1669ZM4.87643 26.7923L4.87576 26.7936L4.87574 26.7936L4.87572 26.7937C4.74495 27.0416 4.75351 27.34 4.89829 27.58C5.04308 27.8201 5.30298 27.9669 5.58335 27.9669V27.1669C5.58335 27.9669 5.58373 27.9669 5.58412 27.9669L5.58495 27.9669L5.58682 27.9669L5.59136 27.9668L5.60357 27.9667C5.61308 27.9665 5.62536 27.9663 5.64029 27.9658C5.67015 27.9649 5.71068 27.9632 5.76114 27.96C5.86204 27.9537 6.00287 27.9414 6.17776 27.9178C6.52732 27.8705 7.01447 27.7774 7.5915 27.5943C8.74018 27.2297 10.2426 26.5086 11.7169 25.0881C12.1119 25.1182 12.5121 25.1335 12.9167 25.1335C14.6303 25.1335 16.2834 24.8523 17.7947 24.3386C18.6915 24.5183 19.6293 24.6135 20.5938 24.6135C20.7205 24.6135 20.8467 24.6118 20.9723 24.6086C21.0422 24.6068 21.1001 24.6293 21.1401 24.6625C22.3612 25.6765 24.3529 27.2146 26.7747 27.1398C27.0466 27.1314 27.2956 26.9855 27.4357 26.7523C27.5758 26.5192 27.5879 26.231 27.4678 25.987L27.4678 25.9869L27.4678 25.9869L27.4677 25.9868L27.4674 25.9861L27.4648 25.9809L27.4535 25.9575C27.4434 25.9363 27.4281 25.9043 27.4087 25.8627C27.3698 25.7796 27.3147 25.6592 27.2511 25.5128C27.123 25.2179 26.9645 24.8273 26.8347 24.4295C26.7009 24.0197 26.615 23.6544 26.601 23.3939C26.599 23.3558 26.5985 23.3244 26.5989 23.2989C26.9602 23.1014 27.468 22.7891 27.7212 22.6281C30.3089 20.983 32.05 18.4066 32.05 15.4408C32.05 10.2058 26.7304 6.26807 20.5938 6.26807C19.9903 6.26807 19.3972 6.30534 18.8181 6.37728L18.8194 6.38821C17.0447 5.62659 15.0265 5.2002 12.9167 5.2002C6.222 5.2002 0.450012 9.49344 0.450012 15.1669C0.450012 18.3821 2.33749 21.181 5.15413 22.9718C5.44704 23.158 5.75039 23.3337 6.06327 23.4982C6.06373 23.5392 6.0616 23.5944 6.05375 23.6658C6.01779 23.9934 5.88922 24.4413 5.70824 24.9294C5.53164 25.4058 5.3233 25.8729 5.15703 26.2245C5.07435 26.3993 5.00311 26.5433 4.95289 26.643C4.9278 26.6928 4.90801 26.7314 4.89474 26.7571L4.87989 26.7857L4.87643 26.7923ZM21.4509 7.89585C23.8515 9.68773 25.3833 12.2442 25.3833 15.1669C25.3833 18.4186 23.4872 21.217 20.6079 23.0135C20.716 23.0134 20.8237 23.0119 20.9309 23.0091C21.3701 22.9977 21.8104 23.1394 22.1622 23.4316C23.1031 24.2128 24.2262 25.0482 25.475 25.3867C25.4197 25.2383 25.365 25.0834 25.3137 24.9261C25.1666 24.4757 25.0287 23.9517 25.0033 23.4798C24.9824 23.0899 25.0191 22.3108 25.7205 21.9539C25.9991 21.8121 26.5702 21.4639 26.8628 21.2779C29.1038 19.8532 30.45 17.7355 30.45 15.4408C30.45 11.6337 26.6506 8.23511 21.4509 7.89585ZM26.6093 23.2052C26.6087 23.2045 26.6065 23.2104 26.6042 23.225C26.6087 23.2133 26.6099 23.206 26.6093 23.2052Z" fill="#767779"/>
</g>
<defs>
<clipPath id="clip0_2009_4742">
<rect width="32" height="32" fill="white" transform="translate(0.25)"/>
</clipPath>
</defs>
</svg>
