<svg width="24" height="25" viewBox="0 0 24 25" fill="none" xmlns="http://www.w3.org/2000/svg">
<path fill-rule="evenodd" clip-rule="evenodd" d="M5.1 6.29981L5.07506 6.29981C4.81644 6.29979 4.5818 6.29977 4.3862 6.31576C4.17616 6.33292 3.9503 6.37194 3.72822 6.4851C3.40834 6.64808 3.14827 6.90815 2.98529 7.22802C2.87213 7.45011 2.83311 7.67597 2.81595 7.88601C2.79997 8.08161 2.79998 8.31625 2.8 8.57487L2.8 8.59981V18.0002H1C0.447715 18.0002 0 18.4479 0 19.0002C0 19.5525 0.447715 20.0002 1 20.0002H23C23.5523 20.0002 24 19.5525 24 19.0002C24 18.4479 23.5523 18.0002 23 18.0002H21.2V8.59981V8.5749C21.2 8.31627 21.2 8.08161 21.1841 7.88601C21.1669 7.67597 21.1279 7.45011 21.0147 7.22802C20.8517 6.90815 20.5917 6.64808 20.2718 6.4851C20.0497 6.37194 19.8238 6.33292 19.6138 6.31576C19.4182 6.29977 19.1836 6.29979 18.9249 6.29981L18.9 6.29981H5.1ZM19.8 18.0002V8.59981C19.8 8.30823 19.7995 8.13165 19.7887 8.00001C19.7809 7.90468 19.7699 7.87037 19.7672 7.86345C19.7672 7.86351 19.7673 7.86355 19.7673 7.86361L19.7671 7.86326C19.7672 7.86332 19.7672 7.86338 19.7672 7.86345C19.7385 7.80714 19.6927 7.76133 19.6364 7.73259C19.6295 7.7299 19.5952 7.7189 19.4998 7.71111C19.3682 7.70035 19.1916 7.69981 18.9 7.69981H5.1C4.80842 7.69981 4.63184 7.70035 4.5002 7.71111C4.40392 7.71897 4.36989 7.73012 4.36344 7.73267L4.3638 7.7325C4.30741 7.76124 4.26156 7.80707 4.23279 7.86343C4.23281 7.86337 4.23284 7.86331 4.23286 7.86325C4.2332 7.8624 4.23338 7.86203 4.23339 7.86206M4.36344 7.73267C4.36259 7.733 4.36222 7.73319 4.36225 7.7332ZM19.8 18.0002H4.2V8.59981C4.2 8.30823 4.20054 8.13165 4.2113 8.00001C4.21909 7.90461 4.2301 7.87032 4.23279 7.86343C4.23276 7.86349 4.23273 7.86355 4.2327 7.86361L4.23286 7.86325" fill="#0A0A0A"/>
</svg>
