<svg width="25" height="25" viewBox="0 0 25 25" fill="none" xmlns="http://www.w3.org/2000/svg">
<rect width="24.0184" height="24.0184" rx="12.0092" fill="white"/>
<path fill-rule="evenodd" clip-rule="evenodd" d="M5.99229 5.99229C7.58808 4.3965 9.75244 3.5 12.0092 3.5C12.5063 3.5 12.9092 3.90294 12.9092 4.4C12.9092 4.89706 12.5063 5.3 12.0092 5.3C10.2298 5.3 8.52331 6.00686 7.26509 7.26509C6.00686 8.52331 5.3 10.2298 5.3 12.0092C5.3 13.7886 6.00686 15.4951 7.26509 16.7534C8.52331 18.0116 10.2298 18.7184 12.0092 18.7184C12.5063 18.7184 12.9092 19.1214 12.9092 19.6184C12.9092 20.1155 12.5063 20.5184 12.0092 20.5184C9.75244 20.5184 7.58808 19.6219 5.99229 18.0262C4.3965 16.4304 3.5 14.266 3.5 12.0092C3.5 9.75244 4.39651 7.58808 5.99229 5.99229ZM15.0344 4.96944C15.2829 4.53898 15.8334 4.39149 16.2638 4.64002C16.3282 4.67718 16.392 4.71515 16.4553 4.75392C16.8791 5.01363 17.0121 5.56774 16.7524 5.99155C16.4927 6.41536 15.9386 6.54839 15.5148 6.28868C15.4649 6.25811 15.4146 6.22817 15.3638 6.19887C14.9334 5.95034 14.7859 5.39991 15.0344 4.96944ZM18.0269 7.26602C18.4507 7.00631 19.0048 7.13934 19.2645 7.56316C19.3033 7.62642 19.3413 7.69025 19.3784 7.75461C19.4156 7.81898 19.4519 7.88377 19.4873 7.94898C19.7245 8.3858 19.5626 8.93219 19.1258 9.16936C18.689 9.40654 18.1426 9.24469 17.9054 8.80787C17.8775 8.75646 17.8489 8.70537 17.8196 8.65461C17.7903 8.60386 17.7603 8.55353 17.7298 8.50365C17.4701 8.07984 17.6031 7.52573 18.0269 7.26602ZM19.5923 10.9103C20.0892 10.8973 20.5025 11.2896 20.5155 11.7865C20.5175 11.8606 20.5184 11.9349 20.5184 12.0092C20.5184 12.0835 20.5175 12.1578 20.5155 12.232C20.5025 12.7289 20.0892 13.1211 19.5923 13.1081C19.0954 13.0951 18.7031 12.6818 18.7161 12.1849C18.7177 12.1264 18.7184 12.0678 18.7184 12.0092C18.7184 11.9506 18.7177 11.8921 18.7161 11.8336C18.7031 11.3367 19.0954 10.9233 19.5923 10.9103ZM19.1258 14.8491C19.5626 15.0863 19.7245 15.6326 19.4873 16.0695C19.4519 16.1347 19.4156 16.1995 19.3784 16.2638C19.3413 16.3282 19.3033 16.392 19.2645 16.4553C19.0048 16.8791 18.4507 17.0121 18.0269 16.7524C17.6031 16.4927 17.4701 15.9386 17.7298 15.5148C17.7603 15.4649 17.7903 15.4146 17.8196 15.3638C17.8489 15.3131 17.8775 15.262 17.9054 15.2106C18.1426 14.7738 18.689 14.6119 19.1258 14.8491ZM16.7524 18.0269C17.0121 18.4507 16.8791 19.0048 16.4553 19.2645C16.392 19.3033 16.3282 19.3413 16.2638 19.3784C15.8334 19.627 15.2829 19.4795 15.0344 19.049C14.7859 18.6185 14.9334 18.0681 15.3638 17.8196C15.4146 17.7903 15.4649 17.7603 15.5148 17.7298C15.9386 17.4701 16.4927 17.6031 16.7524 18.0269ZM16.2551 8.11236C16.0942 7.95139 15.8389 7.93443 15.658 8.0727L11.6143 11.1643C11.0292 11.6116 10.9721 12.4719 11.4929 12.9927C12.0249 13.5248 12.9074 13.4518 13.3448 12.8395L16.3036 8.69761C16.4326 8.51691 16.4122 8.26938 16.2551 8.11236Z" fill="#767779"/>
</svg>
