<svg width="19" height="19" viewBox="0 0 19 19" fill="none" xmlns="http://www.w3.org/2000/svg">
<path fill-rule="evenodd" clip-rule="evenodd" d="M12.1316 4.99138C12.4028 4.64263 12.34 4.14001 11.9912 3.86875C11.6425 3.59749 11.1399 3.66032 10.8686 4.00908L4.4249 12.2938L2.0657 9.9345C1.75329 9.62207 1.24676 9.62206 0.934328 9.93447C0.621899 10.2469 0.621885 10.7534 0.934295 11.0658L3.93429 14.066C4.09654 14.2283 4.32067 14.313 4.54969 14.2988C4.77872 14.2845 4.99059 14.1726 5.13147 13.9915L12.1316 4.99138ZM16.7984 4.99146C17.0696 4.6427 17.0068 4.14008 16.658 3.86883C16.3093 3.59757 15.8067 3.6604 15.5354 4.00916L9.09165 12.294L8.73221 11.9346C8.41977 11.6221 7.91324 11.6222 7.60084 11.9346C7.28843 12.247 7.28846 12.7536 7.60089 13.066L8.60113 14.0661C8.76339 14.2284 8.9875 14.3131 9.21652 14.2989C9.44553 14.2846 9.6574 14.1727 9.79827 13.9916L16.7984 4.99146Z" fill="#767779"/>
</svg>
