<svg width="24" height="24" viewBox="0 0 24 24" fill="none" xmlns="http://www.w3.org/2000/svg">
<path fill-rule="evenodd" clip-rule="evenodd" d="M13.4763 20.1834L13.4763 20.1833C13.3238 20.2799 13.128 20.3932 12.9144 20.4869C12.7311 20.5672 12.3944 20.6975 12.0006 20.6975C11.6083 20.6975 11.2697 20.5651 11.0934 20.4884C10.8813 20.3961 10.6835 20.2837 10.525 20.1833L10.516 20.1777L10.5161 20.1776C8.29516 18.7473 6.37121 17.2864 4.9949 15.6931C3.60101 14.0795 2.71002 12.2593 2.71002 10.1568C2.71002 6.5981 5.242 3.88965 8.58658 3.88965C9.96544 3.88965 11.1167 4.39655 12.0006 5.19249C12.8856 4.39475 14.0367 3.88965 15.4225 3.88965C18.7702 3.88965 21.2913 6.60139 21.2913 10.1568C21.2913 12.2593 20.4003 14.0795 19.0064 15.6931C17.6301 17.2864 15.7061 18.7473 13.4852 20.1776L13.4763 20.1834ZM12.9162 6.25095C12.5555 6.58029 12.2492 6.98233 12.0006 7.43809C11.754 6.98367 11.4475 6.58135 11.0855 6.25132C10.4269 5.6508 9.58484 5.28965 8.58658 5.28965C6.0944 5.28965 4.11002 7.28965 4.11002 10.1568C4.11002 13.5006 6.9069 16.1881 11.2741 19.0006C11.5085 19.149 11.8053 19.2975 12.0006 19.2975C12.2038 19.2975 12.4928 19.149 12.7272 19.0006C17.0944 16.1881 19.8913 13.5006 19.8913 10.1568C19.8913 7.28965 17.9147 5.28965 15.4225 5.28965C14.4175 5.28965 13.5757 5.64877 12.9162 6.25095Z" fill="#0A0A0A"/>
</svg>
