<svg width="24" height="25" viewBox="0 0 24 25" fill="none" xmlns="http://www.w3.org/2000/svg">
<path fill-rule="evenodd" clip-rule="evenodd" d="M12 4.4498C7.5541 4.4498 3.94999 8.05391 3.94999 12.4998C3.94999 16.9457 7.5541 20.5498 12 20.5498C16.4459 20.5498 20.05 16.9457 20.05 12.4998C20.05 8.05391 16.4459 4.4498 12 4.4498ZM2.54999 12.4998C2.54999 7.28071 6.7809 3.0498 12 3.0498C17.2191 3.0498 21.45 7.28071 21.45 12.4998C21.45 17.7189 17.2191 21.9498 12 21.9498C6.7809 21.9498 2.54999 17.7189 2.54999 12.4998ZM10.9 12.2002H11.7501V16.3002H10.35C9.96339 16.3002 9.64999 16.6136 9.64999 17.0002C9.64999 17.3868 9.96339 17.7002 10.35 17.7002H14.35C14.7366 17.7002 15.05 17.3868 15.05 17.0002C15.05 16.6136 14.7366 16.3002 14.35 16.3002H13.1501V11.5002C13.1501 11.1136 12.8367 10.8002 12.4501 10.8002H12.4494L10.9 10.8002C10.5134 10.8002 10.2 11.1136 10.2 11.5002C10.2 11.8868 10.5134 12.2002 10.9 12.2002ZM12.05 8.99982C12.7404 8.99982 13.3 8.44017 13.3 7.74982C13.3 7.05946 12.7404 6.49982 12.05 6.49982C11.3596 6.49982 10.8 7.05946 10.8 7.74982C10.8 8.44017 11.3596 8.99982 12.05 8.99982Z" fill="#0A0A0A"/>
</svg>
