<svg width="24" height="25" viewBox="0 0 24 25" fill="none" xmlns="http://www.w3.org/2000/svg">
<g clip-path="url(#clip0_2039_6774)">
<path fill-rule="evenodd" clip-rule="evenodd" d="M7.2 6.9998C7.2 4.34884 9.34903 2.1998 12 2.1998C14.651 2.1998 16.8 4.34884 16.8 6.9998C16.8 9.19593 15.3246 11.0493 13.3095 11.6192C13.0081 11.7044 12.8 11.9795 12.8 12.2928V13.4998C12.8 13.6855 12.8737 13.8635 13.005 13.9948L14.51 15.4998L12.505 17.5048C12.2317 17.7782 12.2317 18.2214 12.505 18.4948L14.028 20.0178L11.7654 22.4544L10.7 21.2368V12.1249C10.7 11.8365 10.5232 11.5777 10.2546 11.4728C8.4655 10.7741 7.2 9.03389 7.2 6.9998ZM12 0.799805C8.57583 0.799805 5.8 3.57564 5.8 6.9998C5.8 9.45715 7.22937 11.5792 9.3 12.5824V21.4998C9.3 21.6694 9.36154 21.8332 9.4732 21.9608L11.2232 23.9608C11.3537 24.11 11.5414 24.1968 11.7397 24.1997C11.9379 24.2027 12.1281 24.1214 12.263 23.9761L15.513 20.4761C15.7692 20.2002 15.7612 19.7711 15.495 19.5048L13.9899 17.9998L15.995 15.9948C16.2683 15.7214 16.2683 15.2782 15.995 15.0048L14.2 13.2099V12.7979C16.5377 11.9104 18.2 9.65 18.2 6.9998C18.2 3.57564 15.4242 0.799805 12 0.799805ZM12 6.4998C12.6904 6.4998 13.25 5.94016 13.25 5.2498C13.25 4.55945 12.6904 3.9998 12 3.9998C11.3096 3.9998 10.75 4.55945 10.75 5.2498C10.75 5.94016 11.3096 6.4998 12 6.4998Z" fill="#0A0A0A"/>
</g>
<defs>
<clipPath id="clip0_2039_6774">
<rect width="24" height="24" fill="white" transform="translate(0 0.5)"/>
</clipPath>
</defs>
</svg>
