<svg width="13" height="12" viewBox="0 0 13 12" fill="none" xmlns="http://www.w3.org/2000/svg">
<g clip-path="url(#clip0_2096_708)">
<path fill-rule="evenodd" clip-rule="evenodd" d="M6.5 0C4.51178 0 2.9 1.61177 2.9 3.6V5.32931C2.35778 5.68705 2 6.3017 2 6.9999V9.9999C2 11.1045 2.89543 11.9999 4 11.9999H9C10.1046 11.9999 11 11.1045 11 9.9999V6.9999C11 6.3017 10.6422 5.68705 10.1 5.32931V3.6C10.1 1.61177 8.48822 0 6.5 0ZM8.9 4.9999V3.6C8.9 2.27452 7.82548 1.2 6.5 1.2C5.17452 1.2 4.1 2.27452 4.1 3.6V4.9999H8.9Z" fill="#767779"/>
</g>
<defs>
<clipPath id="clip0_2096_708">
<rect width="12" height="12" fill="white" transform="translate(0.5)"/>
</clipPath>
</defs>
</svg>
