<svg width="24" height="24" viewBox="0 0 24 24" fill="none" xmlns="http://www.w3.org/2000/svg">
<path fill-rule="evenodd" clip-rule="evenodd" d="M12 3.2998C9.40426 3.2998 7.3 5.40407 7.3 7.9998V10.8114C6.45537 10.9104 5.8 11.6286 5.8 12.4998V19.4998C5.8 20.4387 6.56111 21.1998 7.5 21.1998H16.5C17.4389 21.1998 18.2 20.4387 18.2 19.4998V12.4998C18.2 11.6286 17.5446 10.9104 16.7 10.8114V7.9998C16.7 5.40407 14.5957 3.2998 12 3.2998ZM15.3 10.7998V7.9998C15.3 6.17727 13.8225 4.6998 12 4.6998C10.1775 4.6998 8.7 6.17727 8.7 7.9998V10.7998H15.3ZM7.2 12.4998C7.2 12.3341 7.33431 12.1998 7.5 12.1998H16.5C16.6657 12.1998 16.8 12.3341 16.8 12.4998V19.4998C16.8 19.6655 16.6657 19.7998 16.5 19.7998H7.5C7.33431 19.7998 7.2 19.6655 7.2 19.4998V12.4998Z" fill="#0A0A0A"/>
</svg>
