<svg width="24" height="24" viewBox="0 0 24 24" fill="none" xmlns="http://www.w3.org/2000/svg">
<path fill-rule="evenodd" clip-rule="evenodd" d="M18.9098 9.16016C20.7047 9.16016 22.1598 7.70508 22.1598 5.91016C22.1598 4.11523 20.7047 2.66016 18.9098 2.66016C17.1149 2.66016 15.6598 4.11523 15.6598 5.91016C15.6598 7.70508 17.1149 9.16016 18.9098 9.16016ZM20.7 16.9999V10.1389C20.2637 10.3238 19.7929 10.4432 19.3 10.4847V16.9999C19.3 18.8224 17.8225 20.2999 16 20.2999H7.99999C6.17745 20.2999 4.69999 18.8224 4.69999 16.9999V8.99986C4.69999 7.17732 6.17745 5.69986 7.99999 5.69986H14.3248C14.3471 5.20919 14.4464 4.73858 14.6109 4.29986H7.99999C5.40425 4.29986 3.29999 6.40412 3.29999 8.99986V16.9999C3.29999 19.5956 5.40425 21.6999 7.99999 21.6999H16C18.5957 21.6999 20.7 19.5956 20.7 16.9999Z" fill="#0A0A0A"/>
</svg>
