<svg width="33" height="32" viewBox="0 0 33 32" fill="none" xmlns="http://www.w3.org/2000/svg">
<g clip-path="url(#clip0_2009_6262)">
<path fill-rule="evenodd" clip-rule="evenodd" d="M11.8666 10.4167C11.8666 7.70732 13.8654 5.3667 16.5 5.3667C19.1346 5.3667 21.1333 7.70732 21.1333 10.4167C21.1333 13.1261 19.1346 15.4667 16.5 15.4667C13.8654 15.4667 11.8666 13.1261 11.8666 10.4167ZM9.34297 20.0123C10.8926 18.6119 13.1811 17.5334 16.5 17.5334C19.8189 17.5334 22.1074 18.6119 23.657 20.0123C25.1897 21.3974 25.9476 23.0493 26.3086 24.1357C26.6997 25.3123 25.747 26.3 24.6841 26.3H8.31587C7.25293 26.3 6.30031 25.3123 6.69135 24.1357C7.0524 23.0493 7.81031 21.3974 9.34297 20.0123ZM26.1666 8.8667C24.2529 8.8667 22.8666 10.5904 22.8666 12.5C22.8666 14.4096 24.2529 16.1334 26.1666 16.1334C28.0803 16.1334 29.4666 14.4096 29.4666 12.5C29.4666 10.5904 28.0803 8.8667 26.1666 8.8667ZM27.9838 24.8H30.7508C31.5837 24.8 32.3672 24.0982 32.2259 23.139C32.1085 22.3429 31.7948 21.0402 30.9275 19.9211C30.0304 18.7635 28.588 17.8667 26.3788 17.8667C25.495 17.8667 24.7394 18.0232 24.0965 18.289C24.6363 18.7148 25.1197 19.1776 25.5517 19.6619C26.318 20.5211 26.9175 21.4418 27.3852 22.3334C27.7703 23.0674 27.9233 24.0741 27.9838 24.8ZM8.85544 18.3283C8.33551 18.7432 7.86842 19.1924 7.44968 19.6619C6.68331 20.5211 6.08382 21.4419 5.61611 22.3334C5.2311 23.0674 5.07808 24.0741 5.0176 24.8H2.25C1.4159 24.8 0.636933 24.0989 0.771016 23.1441C0.882193 22.3523 1.17958 21.0537 2.00472 19.9359C2.85994 18.7773 4.24643 17.8667 6.37805 17.8667C7.34437 17.8667 8.16399 18.0383 8.85544 18.3283ZM3.53331 12.5C3.53331 10.5904 4.91962 8.8667 6.83331 8.8667C8.74701 8.8667 10.1333 10.5904 10.1333 12.5C10.1333 14.4096 8.74701 16.1334 6.83331 16.1334C4.91962 16.1334 3.53331 14.4096 3.53331 12.5Z" fill="#0A0A0A"/>
</g>
<defs>
<clipPath id="clip0_2009_6262">
<rect width="32" height="32" fill="white" transform="translate(0.5)"/>
</clipPath>
</defs>
</svg>
