<svg width="33" height="32" viewBox="0 0 33 32" fill="none" xmlns="http://www.w3.org/2000/svg">
<path d="M12.0716 21.0437C8.684 17.6561 6.06135 13.4792 6.06135 10.0066C6.06135 8.46462 6.57131 7.06829 7.73693 5.9391C8.45331 5.24701 9.26682 4.87061 10.0439 4.87061C10.6874 4.87061 11.2824 5.13773 11.7195 5.73268L14.2571 9.33883C14.6214 9.8488 14.8035 10.298 14.8035 10.7352C14.8035 11.2694 14.5121 11.7794 13.9779 12.3622L13.1158 13.2728C12.9822 13.4064 12.9337 13.5521 12.9337 13.7099C12.9337 13.8556 12.9944 14.0135 13.0551 14.147C13.4072 14.8877 14.4757 16.1747 15.702 17.4132C16.9405 18.6517 18.2397 19.6838 18.9561 20.0602C19.0896 20.1209 19.2596 20.1816 19.4296 20.1816C19.5875 20.1816 19.7574 20.133 19.8789 19.9994L20.7652 19.1374C21.3359 18.591 21.8459 18.2996 22.3801 18.2996C22.8172 18.2996 23.2665 18.4938 23.7643 18.846L27.4797 21.4565C28.0625 21.8693 28.2932 22.4278 28.2932 23.0106C28.2932 23.8242 27.8197 24.6741 27.2004 25.3298C26.0955 26.5318 24.7235 27.0782 23.145 27.0782C19.6603 27.0782 15.4471 24.4191 12.0716 21.0437Z" fill="#0A0A0A"/>
</svg>
