<svg width="24" height="25" viewBox="0 0 24 25" fill="none" xmlns="http://www.w3.org/2000/svg">
<path fill-rule="evenodd" clip-rule="evenodd" d="M5.91 10.09V6.41H9.59V10.09H5.91ZM4.25 6.25C4.25 5.42157 4.92157 4.75 5.75 4.75H9.75C10.5784 4.75 11.25 5.42157 11.25 6.25V10.25C11.25 11.0784 10.5784 11.75 9.75 11.75H5.75C4.92157 11.75 4.25 11.0784 4.25 10.25V6.25ZM5.9 18.6V14.9H9.6V18.6H5.9ZM4.25 14.75C4.25 13.9216 4.92157 13.25 5.75 13.25H9.75C10.5784 13.25 11.25 13.9216 11.25 14.75V18.75C11.25 19.5784 10.5784 20.25 9.75 20.25H5.75C4.92157 20.25 4.25 19.5784 4.25 18.75V14.75ZM14.4 6.4V10.1H18.1V6.4H14.4ZM14.25 4.75C13.4216 4.75 12.75 5.42157 12.75 6.25V10.25C12.75 11.0784 13.4216 11.75 14.25 11.75H18.25C19.0784 11.75 19.75 11.0784 19.75 10.25V6.25C19.75 5.42157 19.0784 4.75 18.25 4.75H14.25ZM13.575 13.25C13.1194 13.25 12.75 13.6194 12.75 14.075C12.75 14.5306 13.1194 14.9 13.575 14.9H18.925C19.3806 14.9 19.75 14.5306 19.75 14.075C19.75 13.6194 19.3806 13.25 18.925 13.25H13.575ZM17.25 16.75C17.25 17.3023 16.8023 17.75 16.25 17.75C15.6977 17.75 15.25 17.3023 15.25 16.75C15.25 16.1977 15.6977 15.75 16.25 15.75C16.8023 15.75 17.25 16.1977 17.25 16.75ZM7.75 17.75C8.30228 17.75 8.75 17.3023 8.75 16.75C8.75 16.1977 8.30228 15.75 7.75 15.75C7.19772 15.75 6.75 16.1977 6.75 16.75C6.75 17.3023 7.19772 17.75 7.75 17.75ZM8.75 8.25C8.75 8.80228 8.30228 9.25 7.75 9.25C7.19772 9.25 6.75 8.80228 6.75 8.25C6.75 7.69772 7.19772 7.25 7.75 7.25C8.30228 7.25 8.75 7.69772 8.75 8.25ZM16.25 9.25C16.8023 9.25 17.25 8.80228 17.25 8.25C17.25 7.69772 16.8023 7.25 16.25 7.25C15.6977 7.25 15.25 7.69772 15.25 8.25C15.25 8.80228 15.6977 9.25 16.25 9.25ZM14.75 19.25C14.75 19.8023 14.3023 20.25 13.75 20.25C13.1977 20.25 12.75 19.8023 12.75 19.25C12.75 18.6977 13.1977 18.25 13.75 18.25C14.3023 18.25 14.75 18.6977 14.75 19.25ZM18.75 20.25C19.3023 20.25 19.75 19.8023 19.75 19.25C19.75 18.6977 19.3023 18.25 18.75 18.25C18.1977 18.25 17.75 18.6977 17.75 19.25C17.75 19.8023 18.1977 20.25 18.75 20.25Z" fill="#0A0A0A"/>
</svg>
