<svg width="24" height="24" viewBox="0 0 24 24" fill="none" xmlns="http://www.w3.org/2000/svg">
<path fill-rule="evenodd" clip-rule="evenodd" d="M11.1319 2.04799C11.3695 1.15718 12.6336 1.15718 12.8712 2.04799L14.5394 8.30367H21.4016C22.2665 8.30367 22.6335 9.40473 21.9416 9.92367L16.7997 13.7801L18.5291 20.2652C18.7492 21.0908 17.803 21.7298 17.1195 21.2171L12.0016 17.3787L6.88363 21.2171C6.20012 21.7298 5.25387 21.0908 5.47401 20.2652L7.20339 13.7801L2.06156 9.92367C1.36963 9.40473 1.73664 8.30367 2.60156 8.30367H9.46376L11.1319 2.04799ZM12.0016 4.2204L10.7175 9.03557C10.6125 9.42955 10.2556 9.70367 9.8479 9.70367H4.10156L8.31351 12.8626C8.60729 13.083 8.73774 13.4597 8.64312 13.8145L7.1988 19.2307L11.4616 16.0337C11.7816 15.7937 12.2216 15.7937 12.5416 16.0337L16.8043 19.2307L15.36 13.8145C15.2654 13.4597 15.3958 13.083 15.6896 12.8626L19.9016 9.70367H14.1552C13.7475 9.70367 13.3907 9.42955 13.2856 9.03557L12.0016 4.2204Z" fill="#0A0A0A"/>
</svg>
